<svg width="95" height="40" viewBox="0 0 95 40" fill="none" xmlns="http://www.w3.org/2000/svg">
<path d="M31.0542 20.2592V8.29117H32.8349L33.0045 9.25722H33.0893C33.598 8.59552 34.4626 8.12158 35.6664 8.12158C37.8695 8.12158 39.6335 9.91891 39.6335 12.5793C39.6335 15.2397 37.871 17.0371 35.6664 17.0371C34.4793 17.0371 33.6495 16.545 33.2089 15.9862H33.1241V20.2577H31.0557L31.0542 20.2592ZM37.5637 12.5808C37.5637 11.0212 36.5628 10.0385 35.3424 10.0385C34.1219 10.0385 33.1211 11.0212 33.1211 12.5808C33.1211 14.1404 34.1219 15.1231 35.3424 15.1231C36.5628 15.1231 37.5637 14.1404 37.5637 12.5808Z" fill="#110C22"/>
<path d="M40.6829 12.5808C40.6829 9.987 42.5468 8.12305 45.0392 8.12305C47.5315 8.12305 49.3954 9.987 49.3954 12.5808C49.3954 15.1746 47.5315 17.0385 45.0392 17.0385C42.5468 17.0385 40.6829 15.1564 40.6829 12.5808ZM47.3104 12.5808C47.3104 11.0545 46.2929 10.0385 45.0392 10.0385C43.7854 10.0385 42.7512 11.056 42.7512 12.5808C42.7512 14.1056 43.7854 15.1064 45.0392 15.1064C46.2929 15.1064 47.3104 14.1071 47.3104 12.5808Z" fill="#110C22"/>
<path d="M50.8945 16.869V5.00391H52.9629V16.8705H50.8945V16.869Z" fill="#110C22"/>
<path d="M60.6415 8.29102H62.8446L59.1152 18.7161C58.7427 19.7503 58.234 20.2591 56.8939 20.2591H54.8937V18.3436H56.5896C56.8954 18.3436 57.0635 18.1907 57.1665 17.9363L57.3694 17.3776L53.8777 8.29102H56.0808L58.3021 14.2417H58.6413L60.6415 8.29102Z" fill="#110C22"/>
<path d="M63.2397 17.293H65.3414C65.4262 17.8517 65.9849 18.6148 67.3083 18.6148C68.5454 18.6148 69.36 17.835 69.36 16.6479V15.4441H69.2752C68.818 15.9363 67.97 16.3769 66.8844 16.3769C64.6812 16.3769 62.9854 14.681 62.9854 12.2401C62.9854 9.79929 64.6812 8.12158 66.8844 8.12158C68.02 8.12158 68.8513 8.57886 69.3767 9.2239H69.4615L69.6311 8.29117H71.4284V16.6479C71.4284 18.9192 69.9021 20.4288 67.3083 20.4288C64.4102 20.4288 63.2912 18.53 63.2397 17.293ZM69.36 12.2417C69.36 10.9031 68.4107 9.97039 67.2069 9.97039C66.0031 9.97039 65.0704 10.9031 65.0704 12.2417C65.0704 13.5802 66.0198 14.5296 67.2069 14.5296C68.394 14.5296 69.36 13.5969 69.36 12.2417Z" fill="#110C22"/>
<path d="M72.8652 12.5808C72.8652 9.987 74.7292 8.12305 77.2215 8.12305C79.7139 8.12305 81.5778 9.987 81.5778 12.5808C81.5778 15.1746 79.7139 17.0385 77.2215 17.0385C74.7292 17.0385 72.8652 15.1564 72.8652 12.5808ZM79.4928 12.5808C79.4928 11.0545 78.4753 10.0385 77.2215 10.0385C75.9678 10.0385 74.9336 11.056 74.9336 12.5808C74.9336 14.1056 75.9678 15.1064 77.2215 15.1064C78.4753 15.1064 79.4928 14.1071 79.4928 12.5808Z" fill="#110C22"/>
<path d="M83.0179 16.869V8.29117H84.797L84.9666 9.10428H85.0514C85.3906 8.71514 86.2385 8.12158 87.5256 8.12158C89.4925 8.12158 90.9158 9.54491 90.9158 11.7147V16.8675H88.8475V11.9858C88.8475 10.8834 88.0677 10.087 87.0002 10.087C85.9327 10.087 85.0847 10.9183 85.0847 11.9858V16.8675H83.0164L83.0179 16.869Z" fill="#110C22"/>
<path d="M19.0166 15.8681L24.1012 12.9321C24.3707 12.7761 24.5373 12.4869 24.5373 12.1765V6.30455C24.5373 5.99414 24.3707 5.70494 24.1012 5.54898L19.0166 2.61299C18.7471 2.45702 18.4124 2.45854 18.1444 2.61299L13.0598 5.54898C12.7903 5.70494 12.6237 5.99414 12.6237 6.30455V16.7978L9.05785 18.8556L5.49196 16.7978V12.6808L9.05785 10.623L11.4094 11.9812V9.21934L9.49394 8.11248C9.3622 8.03677 9.21078 7.99589 9.05785 7.99589C8.90492 7.99589 8.7535 8.03677 8.62177 8.11248L3.53716 11.0485C3.26763 11.2044 3.10107 11.4936 3.10107 11.804V17.676C3.10107 17.9864 3.26763 18.2756 3.53716 18.4316L8.62177 21.3676C8.89129 21.522 9.22441 21.522 9.49394 21.3676L14.5785 18.4316C14.8481 18.2756 15.0146 17.9864 15.0146 17.676V7.18126L15.0782 7.14492L18.579 5.12349L22.1449 7.18126V11.2983L18.579 13.3561L16.2305 12.0009V14.7628L18.1429 15.8666C18.4124 16.021 18.7471 16.021 19.0151 15.8666L19.0166 15.8681Z" fill="url(#paint0_linear_15_86)"/>
<path d="M32.3667 26.0574H34.3558L29.4608 36.9506H27.4873L32.3667 26.0574ZM39.064 37.0594C38.2456 37.0594 37.5256 36.904 36.904 36.5932C36.2824 36.272 35.7903 35.8266 35.4277 35.2568C35.0755 34.6766 34.8839 34.0033 34.8528 33.2366H37.0905C37.1423 33.7961 37.3391 34.2364 37.681 34.5575C38.0332 34.8787 38.4942 35.0392 39.064 35.0392C39.5923 35.0392 40.0119 34.9305 40.3227 34.7129C40.6438 34.4953 40.8044 34.1846 40.8044 33.7805C40.8044 33.5008 40.7112 33.2781 40.5247 33.1123C40.3486 32.9362 40.1259 32.8015 39.8565 32.7083C39.5872 32.6151 39.2039 32.5063 38.7066 32.382C37.971 32.2059 37.365 32.0194 36.8885 31.8225C36.4223 31.6154 36.0182 31.289 35.6764 30.8436C35.3345 30.3981 35.1636 29.7869 35.1636 29.0099C35.1636 28.4194 35.3241 27.891 35.6453 27.4248C35.9664 26.9587 36.4119 26.5961 36.9817 26.3371C37.5515 26.0677 38.199 25.9331 38.9241 25.9331C39.7011 25.9331 40.3849 26.0729 40.9754 26.3526C41.5762 26.6323 42.0424 27.0312 42.3739 27.5492C42.7158 28.0672 42.8971 28.668 42.9178 29.3518H40.6956C40.6542 28.9166 40.4781 28.5748 40.1673 28.3261C39.8565 28.0672 39.4421 27.9377 38.9241 27.9377C38.4683 27.9377 38.1057 28.0361 37.8364 28.2329C37.567 28.4297 37.4323 28.6887 37.4323 29.0099C37.4323 29.3103 37.5256 29.5486 37.7121 29.7247C37.8985 29.9008 38.1368 30.0407 38.4269 30.1443C38.7169 30.2375 39.1158 30.3411 39.6234 30.4551C40.3693 30.6312 40.9754 30.8125 41.4415 30.9989C41.9077 31.1854 42.3066 31.5014 42.6381 31.9469C42.98 32.382 43.1509 32.9828 43.1509 33.7494C43.1509 34.4228 42.98 35.0082 42.6381 35.5054C42.2962 36.0027 41.8145 36.386 41.1929 36.6553C40.5817 36.9247 39.8721 37.0594 39.064 37.0594ZM47.9683 37.0594C47.1809 37.0594 46.4765 36.8833 45.8549 36.531C45.2437 36.1788 44.7671 35.6971 44.4253 35.0859C44.0938 34.4643 43.928 33.7753 43.928 33.0191C43.928 32.2628 44.0938 31.5791 44.4253 30.9679C44.7671 30.3463 45.2437 29.8594 45.8549 29.5072C46.4765 29.1549 47.1809 28.9788 47.9683 28.9788C48.652 28.9788 49.2736 29.1083 49.833 29.3673C50.4028 29.6263 50.8586 29.9889 51.2005 30.4551C51.5527 30.9213 51.7496 31.4496 51.791 32.0401H49.6155C49.5533 31.6879 49.372 31.3978 49.0716 31.1699C48.7712 30.942 48.4241 30.828 48.0304 30.828C47.4607 30.828 47.01 31.03 46.6785 31.4341C46.347 31.8381 46.1812 32.3664 46.1812 33.0191C46.1812 33.6718 46.347 34.2001 46.6785 34.6041C47.0204 34.9978 47.4814 35.1946 48.0615 35.1946C48.4552 35.1946 48.7971 35.0859 49.0871 34.8683C49.3772 34.6507 49.5637 34.3659 49.6466 34.0136H51.8532C51.7807 34.5834 51.5631 35.1014 51.2005 35.5676C50.8379 36.0338 50.3717 36.4015 49.8019 36.6709C49.2425 36.9299 48.6313 37.0594 47.9683 37.0594ZM57.4433 31.6671C57.4433 31.3356 57.319 31.0715 57.0703 30.8746C56.8217 30.6674 56.4798 30.5638 56.0447 30.5638C55.5993 30.5638 55.247 30.683 54.988 30.9213C54.7394 31.1595 54.6047 31.4548 54.584 31.807H52.6571C52.6882 31.2787 52.8488 30.8021 53.1388 30.3774C53.4289 29.9423 53.8329 29.6004 54.3509 29.3518C54.8689 29.1031 55.4749 28.9788 56.169 28.9788C56.8217 28.9788 57.407 29.1031 57.925 29.3518C58.443 29.59 58.847 29.9319 59.1371 30.3774C59.4375 30.8125 59.5877 31.3201 59.5877 31.9002V36.9351H57.4433V35.8473C57.3086 36.2099 57.0393 36.5051 56.6352 36.733C56.2416 36.9506 55.7754 37.0594 55.2367 37.0594C54.7394 37.0594 54.2939 36.961 53.9003 36.7641C53.517 36.5569 53.2165 36.2772 52.999 35.925C52.7814 35.5624 52.6726 35.1584 52.6726 34.7129C52.6726 33.9463 52.9316 33.3454 53.4496 32.9103C53.978 32.4648 54.6721 32.2421 55.5319 32.2421H56.8528C57.0393 32.2421 57.1843 32.1903 57.2879 32.0867C57.3915 31.9728 57.4433 31.8329 57.4433 31.6671ZM54.7394 34.6197C54.7394 34.8787 54.8378 35.091 55.0347 35.2568C55.2315 35.4122 55.4801 35.4899 55.7805 35.4899C56.2985 35.4899 56.7026 35.3241 56.9926 34.9926C57.2931 34.6611 57.4433 34.2364 57.4433 33.7184V33.6096H55.8582C55.5267 33.6096 55.2574 33.7028 55.0502 33.8893C54.843 34.0758 54.7394 34.3192 54.7394 34.6197ZM61.8832 30.9057H60.3759V29.1031H61.8832V28.4038C61.8832 27.5854 62.1474 26.9328 62.6757 26.4459C63.2144 25.9486 63.9241 25.7 64.8047 25.7H66.2809V27.5025H65.0999C64.7788 27.5025 64.5198 27.5958 64.3229 27.7823C64.1365 27.9687 64.0432 28.2174 64.0432 28.5282V29.1031H67.0113V28.4038C67.0113 27.5854 67.2754 26.9328 67.8038 26.4459C68.3425 25.9486 69.0521 25.7 69.9327 25.7H71.409V27.5025H70.228C69.9068 27.5025 69.6478 27.5958 69.451 27.7823C69.2645 27.9687 69.1713 28.2174 69.1713 28.5282V29.1031H71.409V30.9057H69.1713V36.9351H67.0113V30.9057H64.0432V36.9351H61.8832V30.9057ZM75.8476 37.0594C75.0602 37.0594 74.3506 36.8884 73.7187 36.5466C73.0867 36.1943 72.5946 35.7126 72.2424 35.1014C71.8902 34.4798 71.7141 33.7857 71.7141 33.0191C71.7141 32.2525 71.8902 31.5636 72.2424 30.9523C72.5946 30.3307 73.0867 29.849 73.7187 29.5072C74.3506 29.1549 75.0602 28.9788 75.8476 28.9788C76.6349 28.9788 77.3446 29.1549 77.9765 29.5072C78.6084 29.849 79.1005 30.3307 79.4528 30.9523C79.805 31.5636 79.9811 32.2525 79.9811 33.0191C79.9811 33.7857 79.805 34.4798 79.4528 35.1014C79.1005 35.7126 78.6084 36.1943 77.9765 36.5466C77.3446 36.8884 76.6349 37.0594 75.8476 37.0594ZM73.8896 33.0191C73.8896 33.6614 74.0709 34.1846 74.4335 34.5886C74.7961 34.9926 75.2674 35.1946 75.8476 35.1946C76.4277 35.1946 76.8991 34.9926 77.2617 34.5886C77.6243 34.1846 77.8056 33.6614 77.8056 33.0191C77.8056 32.3664 77.6243 31.8381 77.2617 31.4341C76.8991 31.03 76.4277 30.828 75.8476 30.828C75.2674 30.828 74.7961 31.03 74.4335 31.4341C74.0709 31.8381 73.8896 32.3664 73.8896 33.0191ZM81.2869 25.7H83.4469V36.9351H81.2869V25.7ZM88.4481 37.0594C87.6918 37.0594 87.034 36.8936 86.4746 36.5621C85.9151 36.2306 85.4852 35.7592 85.1848 35.148C84.8947 34.5368 84.7497 33.8271 84.7497 33.0191C84.7497 32.211 84.8947 31.5014 85.1848 30.8902C85.4852 30.2789 85.91 29.8076 86.459 29.4761C87.0185 29.1446 87.6711 28.9788 88.417 28.9788C88.8936 28.9788 89.3183 29.0669 89.6913 29.243C90.0642 29.4087 90.3646 29.6366 90.5926 29.9267V25.7H92.7526V36.9351H90.5926V36.0804C90.375 36.3808 90.0746 36.6191 89.6913 36.7952C89.3079 36.9713 88.8936 37.0594 88.4481 37.0594ZM86.8941 33.0191C86.8941 33.6718 87.0703 34.2001 87.4225 34.6041C87.7747 34.9978 88.2357 35.1946 88.8055 35.1946C89.3753 35.1946 89.8363 34.9978 90.1885 34.6041C90.5408 34.2001 90.7169 33.6718 90.7169 33.0191C90.7169 32.3561 90.5408 31.8277 90.1885 31.4341C89.8467 31.03 89.3856 30.828 88.8055 30.828C88.2254 30.828 87.7592 31.03 87.4069 31.4341C87.0651 31.8277 86.8941 32.3561 86.8941 33.0191Z" fill="#110C22"/>
<defs>
<linearGradient id="paint0_linear_15_86" x1="3.03142" y1="18.2514" x2="23.6167" y2="6.30303" gradientUnits="userSpaceOnUse">
<stop stop-color="#A726C1"/>
<stop offset="0.88" stop-color="#803BDF"/>
<stop offset="1" stop-color="#7B3FE4"/>
</linearGradient>
</defs>
</svg>
