<svg width="99" height="38" viewBox="0 0 99 38" fill="none" xmlns="http://www.w3.org/2000/svg">
<path d="M32.5857 21.6664V9.10813H34.4542L34.6321 10.1218H34.7211C35.255 9.42749 36.1622 8.93018 37.4253 8.93018C39.7371 8.93018 41.5881 10.8161 41.5881 13.6077C41.5881 16.3994 39.7387 18.2853 37.4253 18.2853C36.1797 18.2853 35.309 17.7689 34.8466 17.1827H34.7577V21.6648H32.5873L32.5857 21.6664ZM39.4162 13.6093C39.4162 11.9728 38.3659 10.9417 37.0853 10.9417C35.8047 10.9417 34.7545 11.9728 34.7545 13.6093C34.7545 15.2459 35.8047 16.277 37.0853 16.277C38.3659 16.277 39.4162 15.2459 39.4162 13.6093Z" fill="#110C22"/>
<path d="M42.6892 13.6092C42.6892 10.8875 44.6451 8.93164 47.2603 8.93164C49.8756 8.93164 51.8314 10.8875 51.8314 13.6092C51.8314 16.3309 49.8756 18.2868 47.2603 18.2868C44.6451 18.2868 42.6892 16.3118 42.6892 13.6092ZM49.6436 13.6092C49.6436 12.0077 48.5759 10.9415 47.2603 10.9415C45.9448 10.9415 44.8596 12.0092 44.8596 13.6092C44.8596 15.2092 45.9448 16.2594 47.2603 16.2594C48.5759 16.2594 49.6436 15.2108 49.6436 13.6092Z" fill="#110C22"/>
<path d="M53.4045 18.1089V5.65869H55.5749V18.1105H53.4045V18.1089Z" fill="#110C22"/>
<path d="M63.6318 9.1084H65.9436L62.0303 20.0476C61.6394 21.1328 61.1055 21.6667 59.6994 21.6667H57.6005V19.6568H59.3801C59.701 19.6568 59.8774 19.4963 59.9854 19.2294L60.1983 18.6431L56.5344 9.1084H58.8462L61.177 15.3526H61.5329L63.6318 9.1084Z" fill="#110C22"/>
<path d="M66.3582 18.5538H68.5636C68.6525 19.1401 69.2388 19.9409 70.6275 19.9409C71.9256 19.9409 72.7804 19.1226 72.7804 17.877V16.6139H72.6914C72.2116 17.1302 71.3218 17.5926 70.1826 17.5926C67.8708 17.5926 66.0913 15.8131 66.0913 13.2518C66.0913 10.6906 67.8708 8.93018 70.1826 8.93018C71.3742 8.93018 72.2465 9.41001 72.7978 10.0869H72.8868L73.0648 9.10813H74.9507V17.877C74.9507 20.2603 73.3492 21.8443 70.6275 21.8443C67.5864 21.8443 66.4123 19.8519 66.3582 18.5538ZM72.7804 13.2534C72.7804 11.8489 71.7842 10.8702 70.521 10.8702C69.2579 10.8702 68.2792 11.8489 68.2792 13.2534C68.2792 14.658 69.2754 15.6542 70.521 15.6542C71.7667 15.6542 72.7804 14.6755 72.7804 13.2534Z" fill="#110C22"/>
<path d="M76.4587 13.6092C76.4587 10.8875 78.4146 8.93164 81.0299 8.93164C83.6451 8.93164 85.601 10.8875 85.601 13.6092C85.601 16.3309 83.6451 18.2868 81.0299 18.2868C78.4146 18.2868 76.4587 16.3118 76.4587 13.6092ZM83.4131 13.6092C83.4131 12.0077 82.3454 10.9415 81.0299 10.9415C79.7143 10.9415 78.6291 12.0092 78.6291 13.6092C78.6291 15.2092 79.7143 16.2594 81.0299 16.2594C82.3454 16.2594 83.4131 15.2108 83.4131 13.6092Z" fill="#110C22"/>
<path d="M87.1119 18.109V9.10813H88.9788L89.1568 9.96134H89.2458C89.6017 9.553 90.4914 8.93018 91.8419 8.93018C93.9059 8.93018 95.3994 10.4237 95.3994 12.7005V18.1074H93.229V12.9849C93.229 11.8282 92.4108 10.9925 91.2906 10.9925C90.1705 10.9925 89.2807 11.8648 89.2807 12.9849V18.1074H87.1104L87.1119 18.109Z" fill="#110C22"/>
<path d="M19.9543 17.0588L25.2897 13.978C25.5725 13.8143 25.7472 13.5109 25.7472 13.1851V7.02359C25.7472 6.69788 25.5725 6.39441 25.2897 6.23075L19.9543 3.14998C19.6715 2.98632 19.3204 2.98791 19.0391 3.14998L13.7038 6.23075C13.421 6.39441 13.2462 6.69788 13.2462 7.02359V18.0343L9.50444 20.1936L5.7627 18.0343V13.7142L9.50444 11.555L11.9719 12.9802V10.0821L9.96203 8.92068C9.8238 8.84123 9.66491 8.79833 9.50444 8.79833C9.34397 8.79833 9.18508 8.84123 9.04685 8.92068L3.7115 12.0015C3.42868 12.1651 3.25391 12.4686 3.25391 12.7943V18.9558C3.25391 19.2816 3.42868 19.585 3.7115 19.7487L9.04685 22.8295C9.32967 22.9915 9.67921 22.9915 9.96203 22.8295L15.2974 19.7487C15.5802 19.585 15.755 19.2816 15.755 18.9558V7.94353L15.8217 7.9054L19.4951 5.78429L23.2369 7.94353V12.2636L19.4951 14.4229L17.0308 13.0008V15.8989L19.0375 17.0572C19.3203 17.2192 19.6715 17.2192 19.9527 17.0572L19.9543 17.0588Z" fill="url(#paint0_linear_15_86)"/>
<path d="M3.876 26.6664H5.412L1.632 35.0784H0.108L3.876 26.6664ZM8.72381 35.1624C8.13181 35.1624 7.61581 35.0344 7.17581 34.7784C6.74381 34.5144 6.41181 34.1464 6.17981 33.6744C5.95581 33.2024 5.84381 32.6584 5.84381 32.0424C5.84381 31.4264 5.95581 30.8824 6.17981 30.4104C6.41181 29.9384 6.74381 29.5744 7.17581 29.3184C7.60781 29.0544 8.11581 28.9224 8.69981 28.9224C9.08381 28.9224 9.43181 28.9984 9.74381 29.1504C10.0558 29.2944 10.2998 29.4944 10.4758 29.7504V26.4264H11.9398V35.0664H10.4758V34.3104C10.2998 34.5744 10.0558 34.7824 9.74381 34.9344C9.43181 35.0864 9.09181 35.1624 8.72381 35.1624ZM7.30781 32.0424C7.30781 32.6024 7.45581 33.0504 7.75181 33.3864C8.04781 33.7224 8.44381 33.8904 8.93981 33.8904C9.43581 33.8904 9.83181 33.7224 10.1278 33.3864C10.4238 33.0504 10.5718 32.6024 10.5718 32.0424C10.5718 31.4824 10.4238 31.0344 10.1278 30.6984C9.83181 30.3624 9.43581 30.1944 8.93981 30.1944C8.44381 30.1944 8.04781 30.3624 7.75181 30.6984C7.45581 31.0344 7.30781 31.4824 7.30781 32.0424ZM15.6077 31.7664H17.8637L16.7357 28.6944L15.6077 31.7664ZM15.9797 26.6664H17.4677L20.7077 35.0664H19.0637L18.3437 33.1104H15.1037L14.3837 35.0664H12.7517L15.9797 26.6664ZM21.5213 29.0184H22.9853V29.7744C23.1693 29.5104 23.4213 29.3024 23.7413 29.1504C24.0613 28.9984 24.4173 28.9224 24.8093 28.9224C25.3773 28.9224 25.8733 29.0544 26.2973 29.3184C26.7213 29.5744 27.0453 29.9384 27.2693 30.4104C27.5013 30.8824 27.6173 31.4264 27.6173 32.0424C27.6173 32.6584 27.4973 33.2024 27.2573 33.6744C27.0173 34.1464 26.6773 34.5144 26.2373 34.7784C25.7973 35.0344 25.2853 35.1624 24.7013 35.1624C24.3333 35.1624 23.9973 35.0944 23.6933 34.9584C23.3893 34.8224 23.1533 34.6384 22.9853 34.4064V37.5144H21.5213V29.0184ZM22.8893 32.0424C22.8893 32.6024 23.0373 33.0504 23.3333 33.3864C23.6373 33.7224 24.0373 33.8904 24.5333 33.8904C25.0213 33.8904 25.4133 33.7224 25.7093 33.3864C26.0053 33.0504 26.1533 32.6024 26.1533 32.0424C26.1533 31.4824 26.0053 31.0344 25.7093 30.6984C25.4133 30.3624 25.0213 30.1944 24.5333 30.1944C24.0373 30.1944 23.6373 30.3624 23.3333 30.6984C23.0373 31.0344 22.8893 31.4824 22.8893 32.0424ZM28.6932 29.0184H30.1572V29.7744C30.3412 29.5104 30.5932 29.3024 30.9132 29.1504C31.2332 28.9984 31.5892 28.9224 31.9812 28.9224C32.5492 28.9224 33.0452 29.0544 33.4692 29.3184C33.8932 29.5744 34.2172 29.9384 34.4412 30.4104C34.6732 30.8824 34.7892 31.4264 34.7892 32.0424C34.7892 32.6584 34.6692 33.2024 34.4292 33.6744C34.1892 34.1464 33.8492 34.5144 33.4092 34.7784C32.9692 35.0344 32.4572 35.1624 31.8732 35.1624C31.5052 35.1624 31.1692 35.0944 30.8652 34.9584C30.5612 34.8224 30.3252 34.6384 30.1572 34.4064V37.5144H28.6932V29.0184ZM30.0612 32.0424C30.0612 32.6024 30.2092 33.0504 30.5052 33.3864C30.8092 33.7224 31.2092 33.8904 31.7052 33.8904C32.1932 33.8904 32.5852 33.7224 32.8812 33.3864C33.1772 33.0504 33.3252 32.6024 33.3252 32.0424C33.3252 31.4824 33.1772 31.0344 32.8812 30.6984C32.5852 30.3624 32.1932 30.1944 31.7052 30.1944C31.2092 30.1944 30.8092 30.3624 30.5052 30.6984C30.2092 31.0344 30.0612 31.4824 30.0612 32.0424ZM38.5501 26.6664H40.1461V33.6864H44.0701V35.0664H38.5501V26.6664ZM48.4988 31.0344C48.4988 30.7384 48.3868 30.4984 48.1628 30.3144C47.9468 30.1224 47.6468 30.0264 47.2628 30.0264C46.8868 30.0264 46.5828 30.1264 46.3508 30.3264C46.1268 30.5264 46.0068 30.7704 45.9908 31.0584H44.6708C44.6948 30.6584 44.8188 30.2984 45.0428 29.9784C45.2668 29.6504 45.5748 29.3944 45.9668 29.2104C46.3668 29.0184 46.8228 28.9224 47.3348 28.9224C47.8468 28.9224 48.2988 29.0184 48.6908 29.2104C49.0908 29.3944 49.3988 29.6584 49.6148 30.0024C49.8388 30.3384 49.9508 30.7304 49.9508 31.1784V35.0664H48.4988V34.1664C48.3708 34.4704 48.1428 34.7144 47.8148 34.8984C47.4948 35.0744 47.1188 35.1624 46.6868 35.1624C46.2948 35.1624 45.9428 35.0864 45.6308 34.9344C45.3268 34.7744 45.0908 34.5584 44.9228 34.2864C44.7548 34.0064 44.6708 33.6944 44.6708 33.3504C44.6708 32.7664 44.8788 32.3024 45.2948 31.9584C45.7108 31.6144 46.2588 31.4424 46.9388 31.4424H48.0548C48.1988 31.4424 48.3068 31.4064 48.3788 31.3344C48.4588 31.2624 48.4988 31.1624 48.4988 31.0344ZM46.0988 33.2904C46.0988 33.5224 46.1828 33.7104 46.3508 33.8544C46.5268 33.9984 46.7548 34.0704 47.0348 34.0704C47.4908 34.0704 47.8468 33.9264 48.1028 33.6384C48.3668 33.3504 48.4988 32.9744 48.4988 32.5104V32.4144H47.1428C46.8308 32.4144 46.5788 32.4944 46.3868 32.6544C46.1948 32.8144 46.0988 33.0264 46.0988 33.2904ZM56.6901 35.0664H55.2141V34.1304C55.0461 34.4584 54.7981 34.7144 54.4701 34.8984C54.1421 35.0744 53.7621 35.1624 53.3301 35.1624C52.6501 35.1624 52.1021 34.9424 51.6861 34.5024C51.2781 34.0544 51.0741 33.4744 51.0741 32.7624V29.0184H52.5501V32.4504C52.5501 32.8664 52.6661 33.2064 52.8981 33.4704C53.1301 33.7264 53.4341 33.8544 53.8101 33.8544C54.2261 33.8544 54.5621 33.7104 54.8181 33.4224C55.0821 33.1344 55.2141 32.7664 55.2141 32.3184V29.0184H56.6901V35.0664ZM58.0116 29.0184H59.4876V29.9544C59.6556 29.6264 59.9036 29.3744 60.2316 29.1984C60.5596 29.0144 60.9396 28.9224 61.3716 28.9224C62.0516 28.9224 62.5956 29.1464 63.0036 29.5944C63.4196 30.0344 63.6276 30.6104 63.6276 31.3224V35.0664H62.1516V31.6344C62.1516 31.2184 62.0356 30.8824 61.8036 30.6264C61.5716 30.3624 61.2676 30.2304 60.8916 30.2304C60.4756 30.2304 60.1356 30.3744 59.8716 30.6624C59.6156 30.9504 59.4876 31.3184 59.4876 31.7664V35.0664H58.0116V29.0184ZM67.6971 35.1624C67.0811 35.1624 66.5411 35.0264 66.0771 34.7544C65.6131 34.4744 65.2531 34.0984 64.9971 33.6264C64.7491 33.1464 64.6251 32.6184 64.6251 32.0424C64.6251 31.4664 64.7491 30.9424 64.9971 30.4704C65.2531 29.9904 65.6131 29.6144 66.0771 29.3424C66.5411 29.0624 67.0811 28.9224 67.6971 28.9224C68.2011 28.9224 68.6651 29.0184 69.0891 29.2104C69.5131 29.4024 69.8571 29.6744 70.1211 30.0264C70.3931 30.3704 70.5491 30.7704 70.5891 31.2264H69.1251C69.0691 30.9304 68.9091 30.6864 68.6451 30.4944C68.3891 30.2944 68.0851 30.1944 67.7331 30.1944C67.2371 30.1944 66.8491 30.3664 66.5691 30.7104C66.2971 31.0544 66.1611 31.4984 66.1611 32.0424C66.1611 32.5864 66.3011 33.0304 66.5811 33.3744C66.8611 33.7184 67.2531 33.8904 67.7571 33.8904C68.1011 33.8904 68.3971 33.8024 68.6451 33.6264C68.9011 33.4424 69.0651 33.1984 69.1371 32.8944H70.6251C70.5611 33.3344 70.3931 33.7264 70.1211 34.0704C69.8571 34.4144 69.5131 34.6824 69.0891 34.8744C68.6731 35.0664 68.2091 35.1624 67.6971 35.1624ZM71.6542 26.4264H73.1182V29.9544C73.2862 29.6264 73.5342 29.3744 73.8622 29.1984C74.1982 29.0144 74.5822 28.9224 75.0142 28.9224C75.4622 28.9224 75.8542 29.0264 76.1902 29.2344C76.5342 29.4344 76.7982 29.7144 76.9822 30.0744C77.1662 30.4344 77.2582 30.8504 77.2582 31.3224V35.0664H75.7942V31.6344C75.7942 31.2184 75.6742 30.8824 75.4342 30.6264C75.2022 30.3624 74.8982 30.2304 74.5222 30.2304C74.1142 30.2304 73.7782 30.3744 73.5142 30.6624C73.2502 30.9504 73.1182 31.3184 73.1182 31.7664V35.0664H71.6542V26.4264ZM78.662 29.0184H80.126V29.7744C80.31 29.5104 80.562 29.3024 80.882 29.1504C81.202 28.9984 81.558 28.9224 81.95 28.9224C82.518 28.9224 83.014 29.0544 83.438 29.3184C83.862 29.5744 84.186 29.9384 84.41 30.4104C84.642 30.8824 84.758 31.4264 84.758 32.0424C84.758 32.6584 84.638 33.2024 84.398 33.6744C84.158 34.1464 83.818 34.5144 83.378 34.7784C82.938 35.0344 82.426 35.1624 81.842 35.1624C81.474 35.1624 81.138 35.0944 80.834 34.9584C80.53 34.8224 80.294 34.6384 80.126 34.4064V37.5144H78.662V29.0184ZM80.03 32.0424C80.03 32.6024 80.178 33.0504 80.474 33.3864C80.778 33.7224 81.178 33.8904 81.674 33.8904C82.162 33.8904 82.554 33.7224 82.85 33.3864C83.146 33.0504 83.294 32.6024 83.294 32.0424C83.294 31.4824 83.146 31.0344 82.85 30.6984C82.554 30.3624 82.162 30.1944 81.674 30.1944C81.178 30.1944 80.778 30.3624 80.474 30.6984C80.178 31.0344 80.03 31.4824 80.03 32.0424ZM89.3387 31.0344C89.3387 30.7384 89.2267 30.4984 89.0027 30.3144C88.7867 30.1224 88.4867 30.0264 88.1027 30.0264C87.7267 30.0264 87.4227 30.1264 87.1907 30.3264C86.9667 30.5264 86.8467 30.7704 86.8307 31.0584H85.5107C85.5347 30.6584 85.6587 30.2984 85.8827 29.9784C86.1067 29.6504 86.4147 29.3944 86.8067 29.2104C87.2067 29.0184 87.6627 28.9224 88.1747 28.9224C88.6867 28.9224 89.1387 29.0184 89.5307 29.2104C89.9307 29.3944 90.2387 29.6584 90.4547 30.0024C90.6787 30.3384 90.7907 30.7304 90.7907 31.1784V35.0664H89.3387V34.1664C89.2107 34.4704 88.9827 34.7144 88.6547 34.8984C88.3347 35.0744 87.9587 35.1624 87.5267 35.1624C87.1347 35.1624 86.7827 35.0864 86.4707 34.9344C86.1667 34.7744 85.9307 34.5584 85.7627 34.2864C85.5947 34.0064 85.5107 33.6944 85.5107 33.3504C85.5107 32.7664 85.7187 32.3024 86.1347 31.9584C86.5507 31.6144 87.0987 31.4424 87.7787 31.4424H88.8947C89.0387 31.4424 89.1467 31.4064 89.2187 31.3344C89.2987 31.2624 89.3387 31.1624 89.3387 31.0344ZM86.9387 33.2904C86.9387 33.5224 87.0227 33.7104 87.1907 33.8544C87.3667 33.9984 87.5947 34.0704 87.8747 34.0704C88.3307 34.0704 88.6867 33.9264 88.9427 33.6384C89.2067 33.3504 89.3387 32.9744 89.3387 32.5104V32.4144H87.9827C87.6707 32.4144 87.4187 32.4944 87.2267 32.6544C87.0347 32.8144 86.9387 33.0264 86.9387 33.2904ZM94.5754 35.1624C93.9834 35.1624 93.4674 35.0344 93.0274 34.7784C92.5954 34.5144 92.2634 34.1464 92.0314 33.6744C91.8074 33.2024 91.6954 32.6584 91.6954 32.0424C91.6954 31.4264 91.8074 30.8824 92.0314 30.4104C92.2634 29.9384 92.5954 29.5744 93.0274 29.3184C93.4594 29.0544 93.9674 28.9224 94.5514 28.9224C94.9354 28.9224 95.2834 28.9984 95.5954 29.1504C95.9074 29.2944 96.1514 29.4944 96.3274 29.7504V26.4264H97.7914V35.0664H96.3274V34.3104C96.1514 34.5744 95.9074 34.7824 95.5954 34.9344C95.2834 35.0864 94.9434 35.1624 94.5754 35.1624ZM93.1594 32.0424C93.1594 32.6024 93.3074 33.0504 93.6034 33.3864C93.8994 33.7224 94.2954 33.8904 94.7914 33.8904C95.2874 33.8904 95.6834 33.7224 95.9794 33.3864C96.2754 33.0504 96.4234 32.6024 96.4234 32.0424C96.4234 31.4824 96.2754 31.0344 95.9794 30.6984C95.6834 30.3624 95.2874 30.1944 94.7914 30.1944C94.2954 30.1944 93.8994 30.3624 93.6034 30.6984C93.3074 31.0344 93.1594 31.4824 93.1594 32.0424Z" fill="#110C22"/>
<defs>
<linearGradient id="paint0_linear_15_86" x1="3.18082" y1="19.5596" x2="24.7812" y2="7.022" gradientUnits="userSpaceOnUse">
<stop stop-color="#A726C1"/>
<stop offset="0.88" stop-color="#803BDF"/>
<stop offset="1" stop-color="#7B3FE4"/>
</linearGradient>
</defs>
</svg>
